<?xml version="1.0" encoding="UTF-8"?><svg id="Layer_1" xmlns="http://www.w3.org/2000/svg" viewBox="0 0 1080 150"><defs><style>.cls-1{fill:#fff;}</style></defs><path class="cls-1" d="M7.99,109.92l11.14-11.62h93.08c2.41,0,4.47-.86,6.2-2.59,1.69-1.69,2.54-3.74,2.54-6.15s-.85-4.48-2.54-6.2c-1.72-1.69-3.79-2.54-6.2-2.54H36.55c-5.6,0-10.4-2-14.4-6-3.97-3.97-5.96-8.77-5.96-14.4s1.99-10.38,5.96-14.35c4-4,8.8-6,14.4-6h104.26l-11.14,11.67H36.55c-2.41,0-4.46.85-6.15,2.54-1.73,1.72-2.59,3.77-2.59,6.15s.86,4.48,2.59,6.2c1.69,1.69,3.74,2.54,6.15,2.54h75.65c5.63,0,10.43,2,14.4,6,4,3.97,6,8.77,6,14.4s-2,10.39-6,14.4-8.77,5.96-14.4,5.96H7.99Z"/><path class="cls-1" d="M287.81,40.08v11.67h-52.37v58.18h-11.66v-58.18h-52.37v-11.67h116.41Z"/><path class="cls-1" d="M346.95,109.92c-5.6,0-10.4-1.99-14.4-5.96-3.97-4-5.96-8.8-5.96-14.4v-29.14c0-5.59,1.99-10.38,5.96-14.35,4-4,8.8-6,14.4-6h75.65c5.63,0,10.43,2,14.4,6,4,3.97,6,8.76,6,14.35v29.14c0,5.6-2,10.39-6,14.4-3.97,3.97-8.77,5.96-14.4,5.96h-75.65ZM346.95,51.74c-2.41,0-4.46.85-6.15,2.54-1.73,1.72-2.59,3.77-2.59,6.15v29.14c0,2.41.86,4.45,2.59,6.15,1.69,1.73,3.74,2.59,6.15,2.59h75.65c2.41,0,4.47-.86,6.2-2.59,1.69-1.69,2.54-3.74,2.54-6.15v-29.14c0-2.37-.85-4.42-2.54-6.15-1.72-1.69-3.79-2.54-6.2-2.54h-75.65Z"/><path class="cls-1" d="M733,40.08c5.63,0,10.43,2,14.4,6,4,3.97,6,8.76,6,14.35s-2,10.43-6,14.4c-3.97,4-8.77,6-14.4,6h-84.39v29.09h-11.62V40.08h96.01ZM733,69.17c2.41,0,4.47-.85,6.2-2.54,1.69-1.72,2.54-3.79,2.54-6.2s-.85-4.42-2.54-6.15c-1.72-1.69-3.79-2.54-6.2-2.54h-84.39v17.43h84.39Z"/><path class="cls-1" d="M812.55,109.92c-5.6,0-10.4-1.99-14.4-5.96-3.97-4-5.96-8.8-5.96-14.4v-29.14c0-5.59,1.99-10.38,5.96-14.35,4-4,8.8-6,14.4-6h75.65c5.63,0,10.43,2,14.4,6,4,3.97,6,8.76,6,14.35v29.14c0,5.6-2,10.39-6,14.4s-8.77,5.96-14.4,5.96h-75.65ZM812.55,51.74c-2.41,0-4.46.85-6.15,2.54-1.73,1.72-2.59,3.77-2.59,6.15v29.14c0,2.41.86,4.45,2.59,6.15,1.69,1.73,3.74,2.59,6.15,2.59h75.65c2.41,0,4.47-.86,6.2-2.59,1.69-1.69,2.54-3.74,2.54-6.15v-29.14c0-2.37-.85-4.42-2.54-6.15-1.72-1.69-3.79-2.54-6.2-2.54h-75.65Z"/><path class="cls-1" d="M967.8,109.92c-5.63,0-10.43-1.99-14.4-5.96-4-4-6-8.8-6-14.4,0-5.63,2-10.43,6-14.4,3.97-4,8.77-6,14.4-6h75.65c2.41,0,4.46-.85,6.15-2.54,1.73-1.72,2.59-3.79,2.59-6.2s-.86-4.42-2.59-6.15c-1.69-1.69-3.74-2.54-6.15-2.54h-93.13s-11.14-11.67-11.14-11.67h104.26c5.6,0,10.4,2,14.4,6,3.97,3.97,5.96,8.76,5.96,14.35,0,5.63-1.99,10.43-5.96,14.4-4,4-8.8,6-14.4,6h-75.65c-2.41,0-4.47.85-6.2,2.54-1.69,1.72-2.54,3.79-2.54,6.2,0,2.41.85,4.45,2.54,6.15,1.72,1.73,3.79,2.59,6.2,2.59h93.08s11.14,11.62,11.14,11.62h-104.22Z"/><polygon class="cls-1" points="479.3 39.41 535.22 74.89 535.22 45.93 479.3 10.44 479.3 39.41"/><polygon class="cls-1" points="600.7 39.41 544.78 74.89 544.78 45.93 600.7 10.44 600.7 39.41"/><polygon class="cls-1" points="600.7 110.59 544.78 75.11 544.78 104.07 600.7 139.56 600.7 110.59"/><polygon class="cls-1" points="479.3 110.59 535.22 75.11 535.22 104.07 479.3 139.56 479.3 110.59"/></svg>