<svg width="55" height="53" viewBox="0 0 55 53" fill="none" xmlns="http://www.w3.org/2000/svg">
<path d="M5.92627 50.9445V19.2585" stroke="#841536" stroke-width="2.5" stroke-miterlimit="10" stroke-linecap="round" stroke-linejoin="round"/>
<path d="M49.2349 19.9556V50.9443" stroke="#841536" stroke-width="2.5" stroke-miterlimit="10" stroke-linecap="round" stroke-linejoin="round"/>
<path d="M14.5734 19.2585H14.5376C12.1645 19.2585 10.2407 17.3346 10.2407 14.9616V10.1216H18.8702V14.9616C18.8702 17.3346 16.9464 19.2585 14.5734 19.2585Z" stroke="#841536" stroke-width="2.5" stroke-miterlimit="10" stroke-linecap="round" stroke-linejoin="round"/>
<path d="M23.2033 19.2585H23.1675C20.7944 19.2585 18.8706 17.3346 18.8706 14.9616V10.1216H27.5001V14.9616C27.5001 17.3346 25.5763 19.2585 23.2033 19.2585Z" stroke="#841536" stroke-width="2.5" stroke-miterlimit="10" stroke-linecap="round" stroke-linejoin="round"/>
<path d="M31.8326 19.2585H31.7969C29.4238 19.2585 27.5 17.3346 27.5 14.9616V10.1216H36.1295V14.9616C36.1295 17.3346 34.2058 19.2585 31.8326 19.2585Z" stroke="#841536" stroke-width="2.5" stroke-miterlimit="10" stroke-linecap="round" stroke-linejoin="round"/>
<path d="M40.462 19.2585H40.4263C38.0532 19.2585 36.1294 17.3346 36.1294 14.9616V10.1216H44.7589V14.9616C44.7589 17.3346 42.8351 19.2585 40.462 19.2585Z" stroke="#841536" stroke-width="2.5" stroke-miterlimit="10" stroke-linecap="round" stroke-linejoin="round"/>
<path d="M10.2408 10.1217V14.9617C10.2408 17.3347 8.31703 19.2585 5.94397 19.2585H5.9082C3.53515 19.2585 1.61133 17.3347 1.61133 14.9617V10.1217L6.1875 2.05566H48.8125L53.3887 10.1217V14.9617C53.3887 17.3347 51.4649 19.2585 49.0918 19.2585H49.056C46.683 19.2585 44.7591 17.3347 44.7591 14.9617V10.1217" stroke="#841536" stroke-width="2.5" stroke-miterlimit="10" stroke-linecap="round" stroke-linejoin="round"/>
<path d="M1.93359 10.1216H10.2408" stroke="#841536" stroke-width="2.5" stroke-miterlimit="10" stroke-linecap="round" stroke-linejoin="round"/>
<path d="M44.7593 10.1216H52.9591" stroke="#841536" stroke-width="2.5" stroke-miterlimit="10" stroke-linecap="round" stroke-linejoin="round"/>
<path d="M53.3887 50.9443H1.61133" stroke="#841536" stroke-width="2.5" stroke-miterlimit="10" stroke-linecap="round" stroke-linejoin="round"/>
<path d="M42.7432 26.2058H32.5957V40.9347H42.7432V26.2058Z" stroke="#841536" stroke-width="2.5" stroke-miterlimit="10" stroke-linecap="round" stroke-linejoin="round"/>
<path d="M24.6675 50.9443L24.6933 26.2058H12.3974L12.3716 50.9443H24.6675Z" stroke="#841536" stroke-width="2.5" stroke-miterlimit="10" stroke-linecap="round" stroke-linejoin="round"/>
</svg>
