<svg width="25" height="36" viewBox="0 0 25 36" fill="none" xmlns="http://www.w3.org/2000/svg">
<path d="M17.0591 13.8299C17.2567 13.8299 17.3919 13.8299 17.5374 13.8299C19.1389 13.8299 20.73 13.8299 22.3315 13.8299C23.4339 13.8299 24.2762 14.2786 24.7442 15.3012C25.2122 16.3133 25.025 17.2525 24.297 18.0977C19.4093 23.7533 14.532 29.4194 9.64435 35.0751C8.8332 36.0142 7.64768 36.2542 6.57654 35.7116C5.52621 35.1794 5.01664 34.042 5.30782 32.842C6.15017 29.3881 6.99252 25.9342 7.84526 22.4907C7.86606 22.3864 7.88686 22.2925 7.91806 22.1255C7.75167 22.1255 7.61648 22.1255 7.48129 22.1255C5.87979 22.1255 4.28869 22.1255 2.68719 22.1255C1.57446 22.1255 0.711319 21.6873 0.243349 20.6438C-0.224621 19.6107 0.0041639 18.6716 0.742517 17.8264C5.54701 12.2438 10.3619 6.66116 15.1768 1.07855C15.6136 0.56725 16.1023 0.170728 16.7783 0.0455106C18.5566 -0.288402 20.1061 1.26638 19.6901 3.02986C19.0141 5.88899 18.2966 8.74812 17.5998 11.6073C17.423 12.3273 17.2463 13.0577 17.0591 13.8299ZM8.34443 32.1533C8.37563 32.1638 8.39643 32.1742 8.42762 32.1846C12.8785 27.0299 17.3295 21.8751 21.8428 16.6368C21.614 16.6368 21.4892 16.6368 21.3644 16.6368C19.8357 16.6368 18.2966 16.6473 16.7679 16.6368C15.0208 16.6264 13.8665 15.1655 14.2824 13.4646C14.8856 10.9499 15.52 8.43508 16.1335 5.92029C16.3103 5.21073 16.4871 4.49073 16.6535 3.78116C16.6327 3.77073 16.6015 3.76029 16.5807 3.73942C12.1298 8.90464 7.66847 14.0594 3.16556 19.2873C4.93345 19.2873 6.59734 19.2768 8.26124 19.2873C9.97713 19.2977 11.1315 20.7586 10.7363 22.4386C10.2059 24.6403 9.65475 26.842 9.11398 29.0333C8.854 30.0873 8.59402 31.1203 8.34443 32.1533Z" fill="#0D0C17"/>
</svg>
