<svg width="35" height="25" viewBox="0 0 35 25" fill="none" xmlns="http://www.w3.org/2000/svg">
<path d="M35 6.5347C34.5716 7.94159 34.1341 9.34847 33.7148 10.7646C32.4115 15.1149 31.1081 19.4651 29.8047 23.8246C29.5495 24.6761 29.112 25.0093 28.2279 25.0093C21.0729 25.0093 13.9271 25.0093 6.77214 25.0093C5.88802 25.0093 5.45052 24.6854 5.19531 23.8338C3.48177 18.0952 1.77734 12.3751 0.0638021 6.65503C0.0455729 6.60875 0.0182292 6.57172 0 6.5347C0 6.34958 0 6.16447 0 5.97935C0.0364583 5.88679 0.0820312 5.79423 0.11849 5.69242C0.455729 4.92419 1.26693 4.66502 2.07812 5.06302C4.39323 6.20149 6.69922 7.34921 9.01432 8.48768C9.15104 8.55247 9.27865 8.61726 9.44271 8.70057C9.78906 8.29331 10.1445 7.88605 10.4909 7.4788C12.4688 5.17409 14.4375 2.86014 16.4062 0.555435C17.0443 -0.194288 17.9648 -0.185032 18.6211 0.583202C20.8633 3.21186 23.1146 5.84051 25.3568 8.47843C25.4115 8.54322 25.4753 8.61726 25.5573 8.70057C26.3138 8.33033 27.0703 7.95084 27.8268 7.58061C29.4674 6.77535 31.099 5.96084 32.7396 5.15558C33.8516 4.60949 34.5169 4.85014 35.0091 5.97935C35 6.16447 35 6.34958 35 6.5347ZM31.3997 8.91345C31.2266 8.99675 31.1172 9.04303 31.0078 9.09857C29.3398 9.92234 27.6719 10.7461 26.0039 11.5699C25.1836 11.9771 24.6276 11.8568 24.0352 11.1626C21.9206 8.69131 19.8151 6.22 17.7005 3.73944C17.6367 3.66539 17.6094 3.55432 17.5638 3.45251C17.4271 3.6006 17.3906 3.64688 17.3542 3.68391C15.2305 6.17372 13.0977 8.66354 10.974 11.1534C10.3815 11.8568 9.82552 11.9679 9.00521 11.5606C7.32813 10.7276 5.65104 9.90382 3.97396 9.0708C3.8737 9.01526 3.76432 8.97824 3.60938 8.91345C3.64583 9.05229 3.66406 9.11708 3.68229 9.18187C4.94922 13.421 6.22526 17.6695 7.48307 21.9086C7.55599 22.1678 7.68359 22.2141 7.91146 22.2141C14.2917 22.2048 20.6719 22.2048 27.0521 22.2141C27.3346 22.2141 27.4622 22.1308 27.5443 21.8531C28.6745 18.0397 29.8229 14.2263 30.9622 10.4129C31.099 9.94085 31.2448 9.45954 31.3997 8.91345Z" fill="#0D0C17"/>
</svg>
